# xmcd CD database file
#
# Track frame offsets:
#	150
#	12898
#	23857
#	36203
#	49622
#	61695
#	73322
#	87717
#	101714
#	113958
#	126481
#	138733
#	150121
#	162326
#	174932
#	187988
#	203941
#	217942
#
# Disc length: 3029 seconds
#
# Revision: 3
# Processed by: cddbd v1.5.2PL0 Copyright (c) Steve Scherf et al.
# Submitted via: CDex 1.51
#
DISCID=fa0bd312
DTITLE=Sonny Terry - Blues Legend
DYEAR=1900
DGENRE=Blues
TTITLE0=Screamin' And Cryin' Blues
TTITLE1=Harmonica Blues
TTITLE2=Beer Garden Blues
TTITLE3=Custard Pie Blues
TTITLE4=Worried Man Blues
TTITLE5=Crow Jane Blues
TTITLE6=Hot Headed Women
TTITLE7=All Alone Blues
TTITLE8=Whoopin' The Blues
TTITLE9=Train Whistle Blues
TTITLE10=New Love Blues
TTITLE11=Harmonica And Washboard Breakdown
TTITLE12=Harmonica Blues
TTITLE13=Harmonica Stomp
TTITLE14=Blowing The Blues
TTITLE15=Lonesome Train
TTITLE16=Sweet Woman
TTITLE17=Fox Chase
EXTD=
EXTT0=
EXTT1=
EXTT2=
EXTT3=
EXTT4=
EXTT5=
EXTT6=
EXTT7=
EXTT8=
EXTT9=
EXTT10=
EXTT11=
EXTT12=
EXTT13=
EXTT14=
EXTT15=
EXTT16=
EXTT17=
PLAYORDER=
